<?xml version="1.0" encoding="UTF-8"?>
<svg id="Layer_1" data-name="Layer 1" xmlns="http://www.w3.org/2000/svg" viewBox="0 0 309.24 273.66">
  <defs>
    <style>
      .cls-1 {
        fill: #e64d3d;
      }

      .cls-1, .cls-2 {
        fill-rule: evenodd;
      }

      .cls-2 {
        fill: #30a1df;
      }
    </style>
  </defs>
  <g>
    <path class="cls-2" d="M252.77,68.56v22.79h39.48V0h-19.39c-4.9,0-9.1,1.7-12.59,5.2l-113.04,113.04,23.99,30.48,81.56-80.16ZM252.77,185.2v22.09l-49.17-49.17-27.89,27.89,82.36,82.46c3.5,3.5,7.7,5.2,12.69,5.2h21.49v-88.45h-39.48Z"/>
    <path class="cls-2" d="M270.86,176.71c21.09,0,38.38-17.29,38.38-38.38s-17.29-38.38-38.38-38.38-38.38,17.19-38.38,38.38,17.19,38.38,38.38,38.38h0Z"/>
  </g>
  <g>
    <path class="cls-1" d="M134.13,88.65C106.34,60.87,78.56,33.08,50.67,5.2c-3.5-3.5-7.7-5.2-12.59-5.2h-21.19v91.35h39.48v-24.59c16.69,16.59,33.28,33.28,49.87,49.87,9.3-9.3,18.59-18.69,27.89-27.99h0ZM16.89,185.2v88.45h23.39c4.9,0,9.1-1.7,12.59-5.2,36.58-36.78,72.66-73.96,109.34-110.64-8-10.19-15.99-20.29-24.09-30.48-27.19,27.29-54.47,54.47-81.76,81.76v-23.89H16.89Z"/>
    <path class="cls-1" d="M38.38,176.71c21.19,0,38.38-17.29,38.38-38.38s-17.19-38.38-38.38-38.38S0,117.14,0,138.33s17.29,38.38,38.38,38.38h0Z"/>
  </g>
</svg>